<svg width="1370" height="286" viewBox="0 0 1370 286" fill="none" xmlns="http://www.w3.org/2000/svg">
<path d="M148.791 17.7539C148.791 12.2106 155.312 9.23882 159.496 12.8752L194.462 43.2702C195.183 41.5477 196.884 40.3374 198.868 40.3374C201.504 40.3375 203.642 42.4746 203.642 45.1107C203.642 46.8576 202.702 48.3838 201.302 49.2158L225.846 70.5511C227.258 71.7786 228.068 73.5579 228.069 75.429V181.324C228.069 185.907 228.015 190.3 227.444 194.728C220.809 246.193 176.827 285.957 123.556 285.957C78.9883 285.957 40.9211 258.126 25.7863 218.895C23.7794 213.693 27.8395 208.391 33.4157 208.391H51.7701C55.883 208.391 59.4856 211.021 61.233 214.744C71.5792 236.792 92.8592 250.608 121.929 250.608C150.923 250.608 177.078 233.134 186.562 206.782C189.609 198.315 183.83 189.05 175.118 186.797C172.563 186.136 169.97 185.693 167.334 185.693H158.141C148.829 185.693 140.043 189.257 132.671 194.949C129.692 197.249 125.958 198.617 121.901 198.617C111.969 198.617 103.948 190.425 104.229 180.429C104.266 179.138 104.448 177.877 104.759 176.664C105.356 174.135 106.52 171.699 108.271 169.552C112.584 164.264 119.316 162.128 125.561 163.432C129.996 164.357 134.564 162.614 137.428 159.102L137.748 158.71C140.111 155.813 140.903 152.025 140.28 148.332C139.836 145.698 140.484 142.896 142.303 140.667C145.713 136.486 151.914 135.94 156.013 139.516C159.853 142.867 160.366 148.864 157.157 152.818C155.279 155.13 152.551 156.334 149.792 156.349C146.03 156.369 142.53 158.294 140.15 161.211L140.089 161.286C139.579 161.912 139.137 162.579 138.765 163.275C136.677 167.189 139.555 171.599 143.668 173.259C148.31 175.133 153.249 176.186 158.342 176.186H167.334C169.883 176.186 172.369 175.854 174.812 175.314C183.288 173.44 188.226 164.386 185.542 156.13C179.654 138.023 167.973 123.077 148.791 115.879V17.7539Z" fill="url(#paint0_linear_557_6862)"/>
<path d="M109.406 215.061C112.257 212.571 116.585 212.871 119.073 215.731C121.561 218.592 121.268 222.93 118.417 225.42C115.567 227.911 111.238 227.61 108.75 224.75C106.262 221.889 106.556 217.552 109.406 215.061Z" fill="url(#paint1_linear_557_6862)"/>
<path d="M63.113 135.235C67.4772 130.208 75.2997 129.546 80.4619 133.759C83.4818 136.224 85.0551 139.803 85.0794 143.418C85.1124 148.349 87.6297 152.94 91.4397 156.064L91.5366 156.143C96.1821 159.952 102.534 160.852 108.068 158.54C114.852 155.706 122.793 156.21 129.285 160.311C128.279 160.469 127.243 160.45 126.22 160.236C118.545 158.634 110.7 161.412 105.746 167.485C101.539 172.643 100.027 179.582 101.7 186.045C102.899 190.675 105.684 194.802 109.542 197.664C113.615 200.686 118.682 202.104 123.809 201.658C124.46 201.601 125.106 201.514 125.744 201.399C118.159 204.486 109.166 203.428 102.376 197.861C95.4697 192.198 92.6714 183.372 94.3609 175.189C95.5608 169.377 93.2797 163.388 88.6929 159.627L88.1804 159.207C84.397 156.105 79.4552 155.061 74.6389 155.871C71.2045 156.448 67.548 155.594 64.6372 153.208C59.1774 148.731 58.4545 140.602 63.113 135.235Z" fill="url(#paint2_linear_557_6862)"/>
<path d="M66.8087 171.277C70.7936 168.542 76.2401 169.566 78.9742 173.564C81.7081 177.562 80.6945 183.02 76.7096 185.756C72.7247 188.491 67.2773 187.467 64.5434 183.468C61.8097 179.471 62.8242 174.013 66.8087 171.277Z" fill="url(#paint3_linear_557_6862)"/>
<path d="M117.247 133.623C120.227 130.736 124.98 130.819 127.865 133.81C130.749 136.8 130.672 141.565 127.693 144.452C124.713 147.339 119.96 147.255 117.075 144.265C114.191 141.275 114.268 136.51 117.247 133.623Z" fill="url(#paint4_linear_557_6862)"/>
<path d="M188.128 14.6808C192.083 14.6808 195.289 17.8868 195.289 21.8411C195.289 25.7953 192.083 29.0007 188.128 29.0007C184.174 29.0006 180.969 25.7953 180.969 21.8411C180.969 17.8868 184.174 14.6809 188.128 14.6808Z" fill="url(#paint5_linear_557_6862)"/>
<path d="M209.608 0.957031C214.551 0.957204 218.557 4.96401 218.558 9.9067C218.558 14.8495 214.551 18.857 209.608 18.8571C204.665 18.8571 200.658 14.8496 200.658 9.9067C200.658 4.9639 204.665 0.957031 209.608 0.957031Z" fill="url(#paint6_linear_557_6862)"/>
<path d="M339.626 72.877C341.251 72.5815 343.837 72.212 347.384 71.7687C350.931 71.1776 354.33 70.882 357.581 70.882C360.98 70.882 363.935 71.1776 366.447 71.7687C369.107 72.212 371.324 73.0987 373.097 74.4287C374.871 75.7587 376.201 77.6059 377.087 79.9704C377.974 82.3348 378.417 85.4381 378.417 89.2804V171.297C378.417 184.449 374.649 194.35 367.112 201C359.576 207.503 348.492 210.754 333.862 210.754C326.178 210.754 319.971 209.571 315.242 207.207C311.843 205.581 309.331 203.365 307.706 200.557C306.228 197.749 305.489 194.572 305.489 191.025C305.489 188.07 305.858 185.484 306.597 183.267C307.484 181.05 308.518 179.277 309.701 177.947C312.508 178.538 314.873 178.981 316.794 179.277C318.863 179.425 321.08 179.499 323.444 179.499C329.207 179.499 333.345 178.095 335.857 175.287C338.37 172.331 339.626 168.046 339.626 162.43V72.877ZM506.343 153.342C506.343 162.504 504.939 170.706 502.132 177.947C499.324 185.04 495.334 191.025 490.162 195.902C485.137 200.779 479.078 204.473 471.985 206.985C464.892 209.498 456.985 210.754 448.267 210.754C439.548 210.754 431.642 209.424 424.548 206.764C417.455 204.104 411.322 200.335 406.15 195.459C401.125 190.434 397.209 184.375 394.402 177.282C391.594 170.189 390.19 162.209 390.19 153.342C390.19 144.623 391.594 136.717 394.402 129.624C397.209 122.53 401.125 116.545 406.15 111.669C411.322 106.644 417.455 102.802 424.548 100.142C431.642 97.482 439.548 96.152 448.267 96.152C456.985 96.152 464.892 97.5559 471.985 100.364C479.078 103.024 485.137 106.866 490.162 111.89C495.334 116.767 499.324 122.752 502.132 129.845C504.939 136.939 506.343 144.771 506.343 153.342ZM428.76 153.342C428.76 162.356 430.459 169.302 433.858 174.179C437.405 178.908 442.282 181.272 448.488 181.272C454.695 181.272 459.424 178.834 462.675 173.957C466.074 169.08 467.773 162.209 467.773 153.342C467.773 144.475 466.074 137.678 462.675 132.949C459.276 128.072 454.473 125.634 448.267 125.634C442.06 125.634 437.257 128.072 433.858 132.949C430.459 137.678 428.76 144.475 428.76 153.342ZM516.304 62.902C517.782 62.4587 520.147 62.0154 523.398 61.572C526.649 60.9809 529.974 60.6854 533.373 60.6854C536.624 60.6854 539.505 60.907 542.018 61.3503C544.678 61.7937 546.894 62.6804 548.668 64.0104C550.441 65.3404 551.771 67.1876 552.658 69.552C553.544 71.7687 553.988 74.7242 553.988 78.4187V100.142C557.682 98.6642 561.155 97.6298 564.406 97.0387C567.805 96.4476 571.499 96.152 575.489 96.152C582.583 96.152 589.307 97.4081 595.661 99.9204C602.015 102.433 607.631 106.127 612.508 111.004C617.384 115.733 621.227 121.644 624.034 128.737C626.842 135.83 628.246 144.032 628.246 153.342C628.246 162.948 626.768 171.371 623.813 178.612C621.005 185.705 617.015 191.616 611.843 196.345C606.67 201.074 600.316 204.695 592.779 207.207C585.39 209.571 577.189 210.754 568.174 210.754C558.421 210.754 550.145 209.571 543.348 207.207C536.55 204.99 530.787 202.183 526.058 198.784C519.555 194.203 516.304 188.291 516.304 181.05V62.902ZM568.174 181.05C574.972 181.05 580.218 178.76 583.913 174.179C587.755 169.45 589.676 162.504 589.676 153.342C589.676 144.032 587.755 137.086 583.913 132.505C580.07 127.924 574.898 125.634 568.396 125.634C565.44 125.634 562.854 125.929 560.638 126.52C558.569 127.111 556.278 127.998 553.766 129.18V177.504C555.392 178.538 557.313 179.425 559.529 180.164C561.894 180.755 564.775 181.05 568.174 181.05ZM744.365 87.2854C744.365 89.2065 743.7 90.9798 742.37 92.6054C741.188 94.0831 739.784 95.1915 738.158 95.9304C734.464 93.2704 729.956 90.7581 724.636 88.3937C719.464 86.0292 712.74 84.847 704.465 84.847C695.45 84.847 687.323 86.9159 680.081 91.0537C672.988 95.1915 667.299 101.398 663.013 109.674C658.875 117.801 656.806 127.924 656.806 140.042C656.806 158.219 661.24 171.888 670.106 181.05C679.121 190.213 690.795 194.794 705.13 194.794C712.814 194.794 719.538 193.685 725.301 191.469C731.065 189.252 735.794 186.74 739.488 183.932C740.966 184.523 742.37 185.631 743.7 187.257C745.03 188.735 745.695 190.508 745.695 192.577C745.695 194.055 745.251 195.533 744.365 197.01C743.626 198.34 742.296 199.67 740.375 201C736.976 203.365 732.321 205.434 726.41 207.207C720.499 209.128 712.962 210.089 703.8 210.089C691.534 210.089 680.377 207.503 670.328 202.33C660.427 197.01 652.595 189.178 646.831 178.834C641.068 168.489 638.186 155.559 638.186 140.042C638.186 124.525 641.142 111.521 647.053 101.029C653.112 90.5365 661.018 82.7042 670.771 77.532C680.673 72.212 691.46 69.552 703.135 69.552C711.263 69.552 718.43 70.4387 724.636 72.212C730.843 73.9854 735.646 76.2759 739.045 79.0837C742.591 81.7437 744.365 84.4776 744.365 87.2854ZM853.179 163.095H835.446V142.702C835.446 133.835 832.933 127.259 827.909 122.974C823.032 118.688 816.678 116.545 808.846 116.545C803.082 116.545 797.688 117.654 792.664 119.87C787.787 122.087 783.649 124.747 780.251 127.85L776.926 113.442C780.472 110.93 785.127 108.418 790.891 105.905C796.802 103.245 803.599 101.915 811.284 101.915C823.549 101.915 833.598 105.24 841.431 111.89C849.263 118.54 853.179 128.663 853.179 142.259V163.095ZM764.734 148.687H782.467V206.764C781.728 207.059 780.62 207.355 779.142 207.65C777.664 208.094 776.039 208.315 774.266 208.315C771.162 208.315 768.798 207.724 767.172 206.542C765.547 205.212 764.734 203.143 764.734 200.335V148.687ZM835.446 148.909L853.179 149.13V206.764C852.44 207.059 851.258 207.355 849.632 207.65C848.154 208.094 846.603 208.315 844.977 208.315C841.726 208.315 839.288 207.724 837.662 206.542C836.184 205.212 835.446 203.143 835.446 200.335V148.909ZM782.467 157.332H764.734V63.567C765.473 63.2715 766.581 62.9759 768.059 62.6804C769.684 62.237 771.384 62.0154 773.157 62.0154C776.261 62.0154 778.551 62.6804 780.029 64.0104C781.654 65.1926 782.467 67.1876 782.467 69.9954V157.332ZM883.942 167.307L883.055 153.342L949.999 144.254C949.408 136.126 946.6 129.476 941.575 124.304C936.551 118.984 929.605 116.324 920.739 116.324C911.576 116.324 903.966 119.649 897.907 126.299C891.996 132.801 889.04 142.185 889.04 154.45V159.327C890.075 171.149 893.917 180.164 900.567 186.37C907.365 192.429 916.601 195.459 928.275 195.459C934.482 195.459 940.098 194.424 945.122 192.355C950.146 190.286 954.136 188.07 957.092 185.705C958.718 186.74 959.974 187.996 960.86 189.474C961.895 190.804 962.412 192.355 962.412 194.129C962.412 196.936 960.786 199.596 957.535 202.109C954.432 204.473 950.22 206.394 944.9 207.872C939.728 209.35 933.891 210.089 927.389 210.089C916.01 210.089 906.109 208.02 897.685 203.882C889.41 199.744 882.981 193.611 878.4 185.484C873.967 177.208 871.75 167.159 871.75 155.337C871.75 146.914 872.933 139.451 875.297 132.949C877.809 126.299 881.208 120.683 885.494 116.102C889.927 111.521 895.173 108.048 901.232 105.684C907.291 103.171 913.867 101.915 920.96 101.915C929.975 101.915 937.881 103.836 944.679 107.679C951.624 111.521 957.018 116.915 960.86 123.86C964.85 130.658 966.845 138.49 966.845 147.357C966.845 150.608 966.106 152.973 964.629 154.45C963.151 155.78 961.082 156.593 958.422 156.889L883.942 167.307ZM1066.27 136.274V161.765H1048.54V137.604C1048.54 130.363 1046.4 125.043 1042.11 121.644C1037.98 118.245 1032.43 116.545 1025.49 116.545C1020.91 116.545 1016.47 117.284 1012.19 118.762C1007.9 120.24 1004.28 121.939 1001.33 123.86V161.765H983.593V124.747C983.593 121.791 984.184 119.279 985.367 117.21C986.697 115.141 988.913 113.146 992.017 111.225C996.007 108.713 1001.03 106.57 1007.09 104.797C1013.3 102.876 1019.5 101.915 1025.71 101.915C1033.25 101.915 1039.9 103.098 1045.66 105.462C1051.42 107.679 1055.71 110.782 1058.52 114.772C1059.4 115.659 1060.14 116.471 1060.73 117.21C1061.32 117.949 1061.92 118.91 1062.51 120.092C1063.54 121.865 1064.43 124.156 1065.17 126.964C1065.91 129.771 1066.27 132.875 1066.27 136.274ZM1131.22 136.717V161.765H1113.49V137.604C1113.49 130.363 1111.42 125.043 1107.28 121.644C1103.15 118.245 1097.6 116.545 1090.66 116.545C1085.49 116.545 1080.46 117.654 1075.58 119.87C1070.86 121.939 1066.57 124.969 1062.73 128.959L1055.63 116.102C1059.48 112.26 1064.5 108.935 1070.71 106.127C1076.92 103.319 1084.01 101.915 1091.99 101.915C1099.97 101.915 1106.84 103.171 1112.6 105.684C1118.51 108.196 1123.1 112.038 1126.35 117.21C1129.6 122.383 1131.22 128.885 1131.22 136.717ZM983.593 150.017H1001.33V206.764C1000.59 207.059 999.479 207.355 998.002 207.65C996.524 208.094 994.898 208.315 993.125 208.315C990.022 208.315 987.657 207.724 986.032 206.542C984.406 205.212 983.593 203.143 983.593 200.335V150.017ZM1048.54 150.017H1066.27V206.764C1065.54 207.059 1064.35 207.355 1062.73 207.65C1061.25 208.094 1059.7 208.315 1058.07 208.315C1054.82 208.315 1052.38 207.724 1050.76 206.542C1049.28 205.212 1048.54 203.143 1048.54 200.335V150.017ZM1113.49 150.017H1131.22V206.764C1130.48 207.059 1129.3 207.355 1127.68 207.65C1126.2 208.094 1124.65 208.315 1123.02 208.315C1119.77 208.315 1117.33 207.724 1115.71 206.542C1114.23 205.212 1113.49 203.143 1113.49 200.335V150.017ZM1154.15 72.4337C1154.15 69.3304 1155.25 66.7442 1157.47 64.6754C1159.69 62.4587 1162.42 61.3503 1165.67 61.3503C1169.07 61.3503 1171.8 62.4587 1173.87 64.6754C1175.94 66.7442 1176.98 69.3304 1176.98 72.4337C1176.98 75.537 1175.94 78.197 1173.87 80.4137C1171.8 82.4826 1169.07 83.517 1165.67 83.517C1162.42 83.517 1159.69 82.4826 1157.47 80.4137C1155.25 78.197 1154.15 75.537 1154.15 72.4337ZM1156.81 148.687H1174.54V206.764C1173.8 207.059 1172.69 207.355 1171.21 207.65C1169.74 208.094 1168.11 208.315 1166.34 208.315C1163.23 208.315 1160.87 207.724 1159.24 206.542C1157.62 205.212 1156.81 203.143 1156.81 200.335V148.687ZM1174.54 157.332H1156.81V105.24C1157.54 104.945 1158.65 104.649 1160.13 104.354C1161.76 103.91 1163.46 103.689 1165.23 103.689C1168.33 103.689 1170.62 104.354 1172.1 105.684C1173.73 106.866 1174.54 108.935 1174.54 111.89V157.332ZM1272.56 179.942C1272.56 189.4 1269.09 196.789 1262.14 202.109C1255.2 207.429 1245.15 210.089 1232 210.089C1220.77 210.089 1211.6 208.389 1204.51 204.99C1197.42 201.444 1193.87 197.601 1193.87 193.464C1193.87 191.69 1194.31 189.991 1195.2 188.365C1196.23 186.592 1197.71 185.188 1199.63 184.154C1203.62 186.961 1208.28 189.548 1213.6 191.912C1218.92 194.276 1224.98 195.459 1231.78 195.459C1247.14 195.459 1254.83 190.286 1254.83 179.942C1254.83 175.656 1253.5 172.184 1250.84 169.524C1248.33 166.716 1244.56 164.721 1239.53 163.539L1221.14 158.662C1212.12 156.445 1205.54 153.046 1201.41 148.465C1197.27 143.736 1195.2 137.899 1195.2 130.954C1195.2 123.121 1198.38 116.324 1204.73 110.56C1211.09 104.797 1220.77 101.915 1233.77 101.915C1240.72 101.915 1246.77 102.654 1251.95 104.132C1257.12 105.462 1261.11 107.309 1263.92 109.674C1266.87 111.89 1268.35 114.329 1268.35 116.989C1268.35 118.91 1267.83 120.609 1266.8 122.087C1265.91 123.565 1264.66 124.673 1263.03 125.412C1261.26 124.23 1258.97 122.974 1256.16 121.644C1253.5 120.166 1250.32 118.984 1246.63 118.097C1242.93 117.063 1238.87 116.545 1234.44 116.545C1227.93 116.545 1222.69 117.801 1218.7 120.314C1214.71 122.826 1212.71 126.373 1212.71 130.954C1212.71 134.205 1213.82 137.086 1216.04 139.599C1218.4 141.963 1222.1 143.736 1227.12 144.919L1242.42 148.687C1252.46 151.051 1260 154.82 1265.03 159.992C1270.05 165.016 1272.56 171.666 1272.56 179.942ZM1290.8 148.687H1308.53V179.277C1308.53 185.188 1310.23 189.4 1313.63 191.912C1317.03 194.276 1321.68 195.459 1327.59 195.459C1330.11 195.459 1332.91 195.015 1336.02 194.129C1339.12 193.242 1341.71 192.208 1343.78 191.025C1344.66 191.912 1345.48 193.02 1346.21 194.35C1346.95 195.68 1347.32 197.232 1347.32 199.005C1347.32 202.256 1345.4 204.916 1341.56 206.985C1337.72 209.054 1332.4 210.089 1325.6 210.089C1315.25 210.089 1306.83 207.798 1300.33 203.217C1293.97 198.636 1290.8 191.025 1290.8 180.385V148.687ZM1299.89 121.644V107.014H1344.88C1345.33 107.605 1345.77 108.565 1346.21 109.895C1346.66 111.225 1346.88 112.629 1346.88 114.107C1346.88 116.471 1346.29 118.319 1345.11 119.649C1343.92 120.979 1342.3 121.644 1340.23 121.644H1299.89ZM1308.53 155.337H1290.8V75.0937C1291.54 74.7981 1292.64 74.5026 1294.12 74.207C1295.75 73.7637 1297.45 73.542 1299.22 73.542C1302.32 73.542 1304.61 74.207 1306.09 75.537C1307.72 76.7192 1308.53 78.7142 1308.53 81.522V155.337Z" fill="black"/>
<defs>
<linearGradient id="paint0_linear_557_6862" x1="145.414" y1="-17.0052" x2="3.59805" y2="254.005" gradientUnits="userSpaceOnUse">
<stop stop-color="#2977D1"/>
<stop offset="0.705291" stop-color="#1A4C84"/>
</linearGradient>
<linearGradient id="paint1_linear_557_6862" x1="145.414" y1="-17.0052" x2="3.59805" y2="254.005" gradientUnits="userSpaceOnUse">
<stop stop-color="#2977D1"/>
<stop offset="0.705291" stop-color="#1A4C84"/>
</linearGradient>
<linearGradient id="paint2_linear_557_6862" x1="145.414" y1="-17.0052" x2="3.59805" y2="254.005" gradientUnits="userSpaceOnUse">
<stop stop-color="#2977D1"/>
<stop offset="0.705291" stop-color="#1A4C84"/>
</linearGradient>
<linearGradient id="paint3_linear_557_6862" x1="145.414" y1="-17.0052" x2="3.59805" y2="254.005" gradientUnits="userSpaceOnUse">
<stop stop-color="#2977D1"/>
<stop offset="0.705291" stop-color="#1A4C84"/>
</linearGradient>
<linearGradient id="paint4_linear_557_6862" x1="145.414" y1="-17.0052" x2="3.59805" y2="254.005" gradientUnits="userSpaceOnUse">
<stop stop-color="#2977D1"/>
<stop offset="0.705291" stop-color="#1A4C84"/>
</linearGradient>
<linearGradient id="paint5_linear_557_6862" x1="145.414" y1="-17.0052" x2="3.59805" y2="254.005" gradientUnits="userSpaceOnUse">
<stop stop-color="#2977D1"/>
<stop offset="0.705291" stop-color="#1A4C84"/>
</linearGradient>
<linearGradient id="paint6_linear_557_6862" x1="145.414" y1="-17.0052" x2="3.59805" y2="254.005" gradientUnits="userSpaceOnUse">
<stop stop-color="#2977D1"/>
<stop offset="0.705291" stop-color="#1A4C84"/>
</linearGradient>
</defs>
</svg>
