<svg width="1370" height="285" viewBox="0 0 1370 285" fill="none" xmlns="http://www.w3.org/2000/svg">
<path d="M148.791 16.7969C148.791 11.2535 155.312 8.28179 159.496 11.9182L194.462 42.3132C195.183 40.5907 196.884 39.3804 198.868 39.3804C201.504 39.3805 203.642 41.5175 203.642 44.1537C203.642 45.9006 202.702 47.4268 201.302 48.2587L225.846 69.594C227.258 70.8216 228.068 72.6009 228.069 74.472V180.367C228.069 184.95 228.015 189.343 227.444 193.771C220.809 245.236 176.827 285 123.556 285C78.9883 285 40.9211 257.169 25.7863 217.938C23.7794 212.736 27.8395 207.434 33.4157 207.434H51.7701C55.883 207.434 59.4856 210.064 61.233 213.787C71.5792 235.835 92.8592 249.651 121.929 249.651C150.923 249.651 177.078 232.176 186.562 205.825C189.609 197.358 183.83 188.093 175.118 185.84C172.563 185.179 169.97 184.736 167.334 184.736H158.141C148.829 184.736 140.043 188.3 132.671 193.992C129.692 196.292 125.958 197.66 121.901 197.66C111.969 197.66 103.948 189.468 104.229 179.472C104.266 178.181 104.448 176.92 104.759 175.707C105.356 173.178 106.52 170.742 108.271 168.595C112.584 163.307 119.316 161.171 125.561 162.475C129.996 163.4 134.564 161.657 137.428 158.145L137.748 157.753C140.111 154.856 140.903 151.068 140.28 147.375C139.836 144.741 140.484 141.939 142.303 139.71C145.713 135.529 151.914 134.983 156.013 138.559C159.853 141.91 160.366 147.907 157.157 151.861C155.279 154.173 152.551 155.377 149.792 155.392C146.03 155.412 142.53 157.337 140.15 160.254L140.089 160.329C139.579 160.955 139.137 161.622 138.765 162.318C136.677 166.232 139.555 170.642 143.668 172.302C148.31 174.176 153.249 175.229 158.342 175.229H167.334C169.883 175.229 172.369 174.897 174.812 174.357C183.288 172.483 188.226 163.429 185.542 155.173C179.654 137.066 167.973 122.12 148.791 114.921V16.7969Z" fill="url(#paint0_linear_557_6846)"/>
<path d="M109.406 214.104C112.257 211.614 116.585 211.914 119.073 214.774C121.561 217.635 121.268 221.973 118.417 224.463C115.567 226.954 111.238 226.653 108.75 223.793C106.262 220.932 106.556 216.595 109.406 214.104Z" fill="url(#paint1_linear_557_6846)"/>
<path d="M63.113 134.278C67.4772 129.251 75.2997 128.589 80.4619 132.802C83.4818 135.267 85.0551 138.846 85.0794 142.461C85.1124 147.392 87.6297 151.983 91.4397 155.107L91.5366 155.186C96.1821 158.995 102.534 159.894 108.068 157.583C114.852 154.749 122.793 155.253 129.285 159.354C128.279 159.512 127.243 159.493 126.22 159.279C118.545 157.677 110.7 160.455 105.746 166.528C101.539 171.686 100.027 178.625 101.7 185.088C102.899 189.718 105.684 193.845 109.542 196.707C113.615 199.729 118.682 201.147 123.809 200.701C124.46 200.644 125.106 200.557 125.744 200.442C118.159 203.529 109.166 202.471 102.376 196.903C95.4697 191.241 92.6714 182.415 94.3609 174.232C95.5608 168.42 93.2797 162.431 88.6929 158.67L88.1804 158.25C84.397 155.148 79.4552 154.104 74.6389 154.914C71.2045 155.491 67.548 154.637 64.6372 152.251C59.1774 147.774 58.4545 139.645 63.113 134.278Z" fill="url(#paint2_linear_557_6846)"/>
<path d="M66.8087 170.32C70.7936 167.585 76.2401 168.609 78.9742 172.607C81.7081 176.605 80.6945 182.063 76.7096 184.798C72.7247 187.534 67.2773 186.51 64.5434 182.511C61.8097 178.514 62.8242 173.056 66.8087 170.32Z" fill="url(#paint3_linear_557_6846)"/>
<path d="M117.247 132.666C120.227 129.779 124.98 129.862 127.865 132.853C130.749 135.843 130.672 140.607 127.693 143.495C124.713 146.382 119.96 146.298 117.075 143.308C114.191 140.318 114.268 135.553 117.247 132.666Z" fill="url(#paint4_linear_557_6846)"/>
<path d="M188.128 13.7238C192.083 13.7238 195.289 16.9298 195.289 20.8841C195.289 24.8383 192.083 28.0437 188.128 28.0437C184.174 28.0436 180.969 24.8382 180.969 20.8841C180.969 16.9298 184.174 13.7238 188.128 13.7238Z" fill="url(#paint5_linear_557_6846)"/>
<path d="M209.608 0C214.551 0.000172659 218.557 4.00698 218.558 8.94967C218.558 13.8925 214.551 17.8999 209.608 17.9001C204.665 17.9001 200.658 13.8926 200.658 8.94967C200.658 4.00687 204.665 0 209.608 0Z" fill="url(#paint6_linear_557_6846)"/>
<path d="M339.626 71.92C341.251 71.6244 343.837 71.255 347.384 70.8117C350.931 70.2206 354.33 69.925 357.581 69.925C360.98 69.925 363.935 70.2206 366.447 70.8117C369.107 71.255 371.324 72.1417 373.097 73.4717C374.871 74.8017 376.201 76.6489 377.087 79.0133C377.974 81.3778 378.417 84.4811 378.417 88.3233V170.34C378.417 183.492 374.649 193.393 367.112 200.043C359.576 206.546 348.492 209.797 333.862 209.797C326.178 209.797 319.971 208.614 315.242 206.25C311.843 204.624 309.331 202.408 307.706 199.6C306.228 196.792 305.489 193.615 305.489 190.068C305.489 187.113 305.858 184.527 306.597 182.31C307.484 180.093 308.518 178.32 309.701 176.99C312.508 177.581 314.873 178.024 316.794 178.32C318.863 178.468 321.08 178.542 323.444 178.542C329.207 178.542 333.345 177.138 335.857 174.33C338.37 171.374 339.626 167.089 339.626 161.473V71.92ZM506.343 152.385C506.343 161.547 504.939 169.749 502.132 176.99C499.324 184.083 495.334 190.068 490.162 194.945C485.137 199.822 479.078 203.516 471.985 206.028C464.892 208.541 456.985 209.797 448.267 209.797C439.548 209.797 431.642 208.467 424.548 205.807C417.455 203.147 411.322 199.378 406.15 194.502C401.125 189.477 397.209 183.418 394.402 176.325C391.594 169.232 390.19 161.252 390.19 152.385C390.19 143.666 391.594 135.76 394.402 128.667C397.209 121.573 401.125 115.588 406.15 110.712C411.322 105.687 417.455 101.845 424.548 99.185C431.642 96.525 439.548 95.195 448.267 95.195C456.985 95.195 464.892 96.5989 471.985 99.4067C479.078 102.067 485.137 105.909 490.162 110.933C495.334 115.81 499.324 121.795 502.132 128.888C504.939 135.982 506.343 143.814 506.343 152.385ZM428.76 152.385C428.76 161.399 430.459 168.345 433.858 173.222C437.405 177.951 442.282 180.315 448.488 180.315C454.695 180.315 459.424 177.877 462.675 173C466.074 168.123 467.773 161.252 467.773 152.385C467.773 143.518 466.074 136.721 462.675 131.992C459.276 127.115 454.473 124.677 448.267 124.677C442.06 124.677 437.257 127.115 433.858 131.992C430.459 136.721 428.76 143.518 428.76 152.385ZM516.304 61.945C517.782 61.5017 520.147 61.0583 523.398 60.615C526.649 60.0239 529.974 59.7283 533.373 59.7283C536.624 59.7283 539.505 59.95 542.018 60.3933C544.678 60.8367 546.894 61.7233 548.668 63.0533C550.441 64.3833 551.771 66.2305 552.658 68.595C553.544 70.8117 553.988 73.7672 553.988 77.4617V99.185C557.682 97.7072 561.155 96.6728 564.406 96.0817C567.805 95.4905 571.499 95.195 575.489 95.195C582.583 95.195 589.307 96.4511 595.661 98.9633C602.015 101.476 607.631 105.17 612.508 110.047C617.384 114.776 621.227 120.687 624.034 127.78C626.842 134.873 628.246 143.075 628.246 152.385C628.246 161.991 626.768 170.414 623.813 177.655C621.005 184.748 617.015 190.659 611.843 195.388C606.67 200.117 600.316 203.738 592.779 206.25C585.39 208.614 577.189 209.797 568.174 209.797C558.421 209.797 550.145 208.614 543.348 206.25C536.55 204.033 530.787 201.226 526.058 197.827C519.555 193.246 516.304 187.334 516.304 180.093V61.945ZM568.174 180.093C574.972 180.093 580.218 177.803 583.913 173.222C587.755 168.493 589.676 161.547 589.676 152.385C589.676 143.075 587.755 136.129 583.913 131.548C580.07 126.967 574.898 124.677 568.396 124.677C565.44 124.677 562.854 124.972 560.638 125.563C558.569 126.154 556.278 127.041 553.766 128.223V176.547C555.392 177.581 557.313 178.468 559.529 179.207C561.894 179.798 564.775 180.093 568.174 180.093ZM744.365 86.3283C744.365 88.2494 743.7 90.0228 742.37 91.6483C741.188 93.1261 739.784 94.2344 738.158 94.9733C734.464 92.3133 729.956 89.8011 724.636 87.4367C719.464 85.0722 712.74 83.89 704.465 83.89C695.45 83.89 687.323 85.9589 680.081 90.0967C672.988 94.2344 667.299 100.441 663.013 108.717C658.875 116.844 656.806 126.967 656.806 139.085C656.806 157.262 661.24 170.931 670.106 180.093C679.121 189.256 690.795 193.837 705.13 193.837C712.814 193.837 719.538 192.728 725.301 190.512C731.065 188.295 735.794 185.783 739.488 182.975C740.966 183.566 742.37 184.674 743.7 186.3C745.03 187.778 745.695 189.551 745.695 191.62C745.695 193.098 745.251 194.576 744.365 196.053C743.626 197.383 742.296 198.713 740.375 200.043C736.976 202.408 732.321 204.477 726.41 206.25C720.499 208.171 712.962 209.132 703.8 209.132C691.534 209.132 680.377 206.546 670.328 201.373C660.427 196.053 652.595 188.221 646.831 177.877C641.068 167.532 638.186 154.602 638.186 139.085C638.186 123.568 641.142 110.564 647.053 100.072C653.112 89.5794 661.018 81.7472 670.771 76.575C680.673 71.255 691.46 68.595 703.135 68.595C711.263 68.595 718.43 69.4817 724.636 71.255C730.843 73.0283 735.646 75.3189 739.045 78.1267C742.591 80.7867 744.365 83.5206 744.365 86.3283ZM853.179 162.138H835.446V141.745C835.446 132.878 832.933 126.302 827.909 122.017C823.032 117.731 816.678 115.588 808.846 115.588C803.082 115.588 797.688 116.697 792.664 118.913C787.787 121.13 783.649 123.79 780.251 126.893L776.926 112.485C780.472 109.973 785.127 107.461 790.891 104.948C796.802 102.288 803.599 100.958 811.284 100.958C823.549 100.958 833.598 104.283 841.431 110.933C849.263 117.583 853.179 127.706 853.179 141.302V162.138ZM764.734 147.73H782.467V205.807C781.728 206.102 780.62 206.398 779.142 206.693C777.664 207.137 776.039 207.358 774.266 207.358C771.162 207.358 768.798 206.767 767.172 205.585C765.547 204.255 764.734 202.186 764.734 199.378V147.73ZM835.446 147.952L853.179 148.173V205.807C852.44 206.102 851.258 206.398 849.632 206.693C848.154 207.137 846.603 207.358 844.977 207.358C841.726 207.358 839.288 206.767 837.662 205.585C836.184 204.255 835.446 202.186 835.446 199.378V147.952ZM782.467 156.375H764.734V62.61C765.473 62.3144 766.581 62.0189 768.059 61.7233C769.684 61.28 771.384 61.0583 773.157 61.0583C776.261 61.0583 778.551 61.7233 780.029 63.0533C781.654 64.2355 782.467 66.2305 782.467 69.0383V156.375ZM883.942 166.35L883.055 152.385L949.999 143.297C949.408 135.169 946.6 128.519 941.575 123.347C936.551 118.027 929.605 115.367 920.739 115.367C911.576 115.367 903.966 118.692 897.907 125.342C891.996 131.844 889.04 141.228 889.04 153.493V158.37C890.075 170.192 893.917 179.207 900.567 185.413C907.365 191.472 916.601 194.502 928.275 194.502C934.482 194.502 940.098 193.467 945.122 191.398C950.146 189.329 954.136 187.113 957.092 184.748C958.718 185.783 959.974 187.039 960.86 188.517C961.895 189.847 962.412 191.398 962.412 193.172C962.412 195.979 960.786 198.639 957.535 201.152C954.432 203.516 950.22 205.437 944.9 206.915C939.728 208.393 933.891 209.132 927.389 209.132C916.01 209.132 906.109 207.063 897.685 202.925C889.41 198.787 882.981 192.654 878.4 184.527C873.967 176.251 871.75 166.202 871.75 154.38C871.75 145.957 872.933 138.494 875.297 131.992C877.809 125.342 881.208 119.726 885.494 115.145C889.927 110.564 895.173 107.091 901.232 104.727C907.291 102.214 913.867 100.958 920.96 100.958C929.975 100.958 937.881 102.879 944.679 106.722C951.624 110.564 957.018 115.958 960.86 122.903C964.85 129.701 966.845 137.533 966.845 146.4C966.845 149.651 966.106 152.016 964.629 153.493C963.151 154.823 961.082 155.636 958.422 155.932L883.942 166.35ZM1066.27 135.317V160.808H1048.54V136.647C1048.54 129.406 1046.4 124.086 1042.11 120.687C1037.98 117.288 1032.43 115.588 1025.49 115.588C1020.91 115.588 1016.47 116.327 1012.19 117.805C1007.9 119.283 1004.28 120.982 1001.33 122.903V160.808H983.593V123.79C983.593 120.834 984.184 118.322 985.367 116.253C986.697 114.184 988.913 112.189 992.017 110.268C996.007 107.756 1001.03 105.613 1007.09 103.84C1013.3 101.919 1019.5 100.958 1025.71 100.958C1033.25 100.958 1039.9 102.141 1045.66 104.505C1051.42 106.722 1055.71 109.825 1058.52 113.815C1059.4 114.702 1060.14 115.514 1060.73 116.253C1061.32 116.992 1061.92 117.953 1062.51 119.135C1063.54 120.908 1064.43 123.199 1065.17 126.007C1065.91 128.814 1066.27 131.918 1066.27 135.317ZM1131.22 135.76V160.808H1113.49V136.647C1113.49 129.406 1111.42 124.086 1107.28 120.687C1103.15 117.288 1097.6 115.588 1090.66 115.588C1085.49 115.588 1080.46 116.697 1075.58 118.913C1070.86 120.982 1066.57 124.012 1062.73 128.002L1055.63 115.145C1059.48 111.303 1064.5 107.978 1070.71 105.17C1076.92 102.362 1084.01 100.958 1091.99 100.958C1099.97 100.958 1106.84 102.214 1112.6 104.727C1118.51 107.239 1123.1 111.081 1126.35 116.253C1129.6 121.426 1131.22 127.928 1131.22 135.76ZM983.593 149.06H1001.33V205.807C1000.59 206.102 999.479 206.398 998.002 206.693C996.524 207.137 994.898 207.358 993.125 207.358C990.022 207.358 987.657 206.767 986.032 205.585C984.406 204.255 983.593 202.186 983.593 199.378V149.06ZM1048.54 149.06H1066.27V205.807C1065.54 206.102 1064.35 206.398 1062.73 206.693C1061.25 207.137 1059.7 207.358 1058.07 207.358C1054.82 207.358 1052.38 206.767 1050.76 205.585C1049.28 204.255 1048.54 202.186 1048.54 199.378V149.06ZM1113.49 149.06H1131.22V205.807C1130.48 206.102 1129.3 206.398 1127.68 206.693C1126.2 207.137 1124.65 207.358 1123.02 207.358C1119.77 207.358 1117.33 206.767 1115.71 205.585C1114.23 204.255 1113.49 202.186 1113.49 199.378V149.06ZM1154.15 71.4767C1154.15 68.3733 1155.25 65.7872 1157.47 63.7183C1159.69 61.5017 1162.42 60.3933 1165.67 60.3933C1169.07 60.3933 1171.8 61.5017 1173.87 63.7183C1175.94 65.7872 1176.98 68.3733 1176.98 71.4767C1176.98 74.58 1175.94 77.24 1173.87 79.4567C1171.8 81.5255 1169.07 82.56 1165.67 82.56C1162.42 82.56 1159.69 81.5255 1157.47 79.4567C1155.25 77.24 1154.15 74.58 1154.15 71.4767ZM1156.81 147.73H1174.54V205.807C1173.8 206.102 1172.69 206.398 1171.21 206.693C1169.74 207.137 1168.11 207.358 1166.34 207.358C1163.23 207.358 1160.87 206.767 1159.24 205.585C1157.62 204.255 1156.81 202.186 1156.81 199.378V147.73ZM1174.54 156.375H1156.81V104.283C1157.54 103.988 1158.65 103.692 1160.13 103.397C1161.76 102.953 1163.46 102.732 1165.23 102.732C1168.33 102.732 1170.62 103.397 1172.1 104.727C1173.73 105.909 1174.54 107.978 1174.54 110.933V156.375ZM1272.56 178.985C1272.56 188.443 1269.09 195.832 1262.14 201.152C1255.2 206.472 1245.15 209.132 1232 209.132C1220.77 209.132 1211.6 207.432 1204.51 204.033C1197.42 200.487 1193.87 196.644 1193.87 192.507C1193.87 190.733 1194.31 189.034 1195.2 187.408C1196.23 185.635 1197.71 184.231 1199.63 183.197C1203.62 186.004 1208.28 188.591 1213.6 190.955C1218.92 193.319 1224.98 194.502 1231.78 194.502C1247.14 194.502 1254.83 189.329 1254.83 178.985C1254.83 174.699 1253.5 171.227 1250.84 168.567C1248.33 165.759 1244.56 163.764 1239.53 162.582L1221.14 157.705C1212.12 155.488 1205.54 152.089 1201.41 147.508C1197.27 142.779 1195.2 136.942 1195.2 129.997C1195.2 122.164 1198.38 115.367 1204.73 109.603C1211.09 103.84 1220.77 100.958 1233.77 100.958C1240.72 100.958 1246.77 101.697 1251.95 103.175C1257.12 104.505 1261.11 106.352 1263.92 108.717C1266.87 110.933 1268.35 113.372 1268.35 116.032C1268.35 117.953 1267.83 119.652 1266.8 121.13C1265.91 122.608 1264.66 123.716 1263.03 124.455C1261.26 123.273 1258.97 122.017 1256.16 120.687C1253.5 119.209 1250.32 118.027 1246.63 117.14C1242.93 116.106 1238.87 115.588 1234.44 115.588C1227.93 115.588 1222.69 116.844 1218.7 119.357C1214.71 121.869 1212.71 125.416 1212.71 129.997C1212.71 133.248 1213.82 136.129 1216.04 138.642C1218.4 141.006 1222.1 142.779 1227.12 143.962L1242.42 147.73C1252.46 150.094 1260 153.863 1265.03 159.035C1270.05 164.059 1272.56 170.709 1272.56 178.985ZM1290.8 147.73H1308.53V178.32C1308.53 184.231 1310.23 188.443 1313.63 190.955C1317.03 193.319 1321.68 194.502 1327.59 194.502C1330.11 194.502 1332.91 194.058 1336.02 193.172C1339.12 192.285 1341.71 191.251 1343.78 190.068C1344.66 190.955 1345.48 192.063 1346.21 193.393C1346.95 194.723 1347.32 196.275 1347.32 198.048C1347.32 201.299 1345.4 203.959 1341.56 206.028C1337.72 208.097 1332.4 209.132 1325.6 209.132C1315.25 209.132 1306.83 206.841 1300.33 202.26C1293.97 197.679 1290.8 190.068 1290.8 179.428V147.73ZM1299.89 120.687V106.057H1344.88C1345.33 106.648 1345.77 107.608 1346.21 108.938C1346.66 110.268 1346.88 111.672 1346.88 113.15C1346.88 115.514 1346.29 117.362 1345.11 118.692C1343.92 120.022 1342.3 120.687 1340.23 120.687H1299.89ZM1308.53 154.38H1290.8V74.1367C1291.54 73.8411 1292.64 73.5455 1294.12 73.25C1295.75 72.8067 1297.45 72.585 1299.22 72.585C1302.32 72.585 1304.61 73.25 1306.09 74.58C1307.72 75.7622 1308.53 77.7572 1308.53 80.565V154.38Z" fill="white"/>
<defs>
<linearGradient id="paint0_linear_557_6846" x1="145.414" y1="-17.9622" x2="3.59805" y2="253.048" gradientUnits="userSpaceOnUse">
<stop stop-color="#DBFF4D"/>
<stop offset="1" stop-color="#A3CC00"/>
</linearGradient>
<linearGradient id="paint1_linear_557_6846" x1="145.414" y1="-17.9622" x2="3.59805" y2="253.048" gradientUnits="userSpaceOnUse">
<stop stop-color="#DBFF4D"/>
<stop offset="1" stop-color="#A3CC00"/>
</linearGradient>
<linearGradient id="paint2_linear_557_6846" x1="145.414" y1="-17.9622" x2="3.59805" y2="253.048" gradientUnits="userSpaceOnUse">
<stop stop-color="#DBFF4D"/>
<stop offset="1" stop-color="#A3CC00"/>
</linearGradient>
<linearGradient id="paint3_linear_557_6846" x1="145.414" y1="-17.9622" x2="3.59805" y2="253.048" gradientUnits="userSpaceOnUse">
<stop stop-color="#DBFF4D"/>
<stop offset="1" stop-color="#A3CC00"/>
</linearGradient>
<linearGradient id="paint4_linear_557_6846" x1="145.414" y1="-17.9622" x2="3.59805" y2="253.048" gradientUnits="userSpaceOnUse">
<stop stop-color="#DBFF4D"/>
<stop offset="1" stop-color="#A3CC00"/>
</linearGradient>
<linearGradient id="paint5_linear_557_6846" x1="145.414" y1="-17.9622" x2="3.59805" y2="253.048" gradientUnits="userSpaceOnUse">
<stop stop-color="#DBFF4D"/>
<stop offset="1" stop-color="#A3CC00"/>
</linearGradient>
<linearGradient id="paint6_linear_557_6846" x1="145.414" y1="-17.9622" x2="3.59805" y2="253.048" gradientUnits="userSpaceOnUse">
<stop stop-color="#DBFF4D"/>
<stop offset="1" stop-color="#A3CC00"/>
</linearGradient>
</defs>
</svg>
